<svg width="483" height="68" viewBox="0 0 483 68" fill="none" xmlns="http://www.w3.org/2000/svg">
<path d="M106.982 66H32.2941L44.2941 49.488H60.4221C64.2621 49.488 68.7741 49.488 71.8461 49.68C70.1181 47.376 67.4301 43.44 65.3181 40.368L53.7981 23.376L23.6541 66H0.134125L41.3181 7.92C44.0061 4.17599 47.9421 0.719999 54.1821 0.719999C60.1341 0.719999 64.0701 3.888 66.8541 7.92L106.982 66ZM186.544 32.976C192.112 34.608 196.624 39.6 196.624 47.28C196.624 57.936 190.768 66 170.512 66H114.064V26.928H170.896C173.776 26.928 176.464 25.872 176.464 22.608C176.464 19.44 173.68 18.48 170.896 18.48H114.064L127.504 1.776H170.032C185.392 1.776 195.28 7.72799 195.28 19.536C195.28 27.12 190.96 31.344 186.544 32.976ZM170.608 40.656H134.032V49.488H170.608C174.928 49.488 176.752 47.952 176.752 44.976C176.752 42.192 174.928 40.656 170.608 40.656ZM251.523 0.719999C282.723 0.719999 298.467 10.896 298.467 33.84C298.467 56.784 282.723 67.056 251.523 67.056C220.227 67.056 204.579 56.784 204.579 33.84C204.579 10.896 220.227 0.719999 251.523 0.719999ZM251.523 50.352C271.491 50.352 278.691 47.664 278.691 33.84C278.691 20.016 271.491 17.424 251.523 17.424C231.555 17.424 224.355 20.016 224.355 33.84C224.355 47.664 231.555 50.352 251.523 50.352ZM391.925 1.776V37.968C391.925 57.36 378.581 67.056 351.893 67.056C320.981 67.056 307.637 57.36 307.637 37.968V1.776H327.413V37.968C327.413 47.472 331.445 50.544 351.893 50.544C367.157 50.544 371.957 46.992 371.957 37.968V1.776H391.925ZM410.005 1.776H482.965L470.101 18.48H447.157V66H427.285V18.48H397.141L410.005 1.776Z" fill="#008080"/>
</svg>
