<svg width="615" height="183" viewBox="0 0 615 183" fill="none" xmlns="http://www.w3.org/2000/svg">
<path d="M39.595 49.488H84.619L71.851 66H39.595C17.323 66 0.907 51.888 0.907 33.264C0.907 14.448 17.323 1.776 39.595 1.776H84.619L71.851 18.48H39.595C28.843 18.48 20.779 24.912 20.779 34.128C20.779 43.248 28.747 49.488 39.595 49.488ZM136.445 0.719999C167.645 0.719999 183.389 10.896 183.389 33.84C183.389 56.784 167.645 67.056 136.445 67.056C105.149 67.056 89.5008 56.784 89.5008 33.84C89.5008 10.896 105.149 0.719999 136.445 0.719999ZM136.445 50.352C156.413 50.352 163.613 47.664 163.613 33.84C163.613 20.016 156.413 17.424 136.445 17.424C116.477 17.424 109.277 20.016 109.277 33.84C109.277 47.664 116.477 50.352 136.445 50.352ZM258.511 67.056C256.015 67.056 253.615 66.48 250.543 63.6L211.183 28.272V66H193.135V12.72C193.135 4.17599 198.319 0.719999 203.983 0.719999C206.383 0.719999 208.783 1.296 211.951 4.17599L251.311 39.504V1.776H269.455V54.96C269.455 63.504 264.271 67.056 258.511 67.056ZM287.989 1.776H360.949L348.085 18.48H325.141V66H305.269V18.48H275.125L287.989 1.776ZM448.56 66H373.872L385.872 49.488H402C405.84 49.488 410.352 49.488 413.424 49.68C411.696 47.376 409.008 43.44 406.896 40.368L395.376 23.376L365.232 66H341.712L382.896 7.92C385.584 4.17599 389.52 0.719999 395.76 0.719999C401.712 0.719999 405.648 3.888 408.432 7.92L448.56 66ZM482.47 49.488H527.494L514.726 66H482.47C460.198 66 443.782 51.888 443.782 33.264C443.782 14.448 460.198 1.776 482.47 1.776H527.494L514.726 18.48H482.47C471.718 18.48 463.654 24.912 463.654 34.128C463.654 43.248 471.622 49.488 482.47 49.488ZM541.208 1.776H614.168L601.304 18.48H578.36V66H558.488V18.48H528.344L541.208 1.776ZM301.41 116.776V152.968C301.41 172.36 288.066 182.056 261.378 182.056C230.466 182.056 217.122 172.36 217.122 152.968V116.776H236.898V152.968C236.898 162.472 240.93 165.544 261.378 165.544C276.642 165.544 281.442 161.992 281.442 152.968V116.776H301.41ZM337.249 142.408H372.193C387.841 142.408 396.289 148.264 396.289 159.976C396.289 173.128 388.321 181 368.737 181H308.929L321.697 164.488H370.273C374.977 164.488 377.089 163.144 377.089 159.784C377.089 156.52 374.977 155.176 370.273 155.176H335.329C318.817 155.176 311.233 147.784 311.233 136.744C311.233 124.648 319.297 116.776 338.785 116.776H394.561L381.793 133.48H337.249C332.641 133.48 330.433 134.632 330.433 137.896C330.433 141.16 332.641 142.408 337.249 142.408Z" fill="#008080"/>
</svg>
