<svg width="758" height="68" viewBox="0 0 758 68" fill="none" xmlns="http://www.w3.org/2000/svg">
<path d="M28.624 27.408H63.568C79.216 27.408 87.664 33.264 87.664 44.976C87.664 58.128 79.696 66 60.112 66H0.304L13.072 49.488H61.648C66.352 49.488 68.464 48.144 68.464 44.784C68.464 41.52 66.352 40.176 61.648 40.176H26.704C10.192 40.176 2.608 32.784 2.608 21.744C2.608 9.648 10.672 1.776 30.16 1.776H85.936L73.168 18.48H28.624C24.016 18.48 21.808 19.632 21.808 22.896C21.808 26.16 24.016 27.408 28.624 27.408ZM181.254 25.872C181.254 40.08 169.638 49.584 149.67 49.584H116.07V66H96.2935V33.168H151.59C157.734 33.168 161.286 30.192 161.286 25.776C161.286 21.264 157.734 18.48 151.59 18.48H96.2935L109.446 1.776H149.766C169.638 1.776 181.254 11.568 181.254 25.872ZM236.289 0.719999C267.489 0.719999 283.233 10.896 283.233 33.84C283.233 56.784 267.489 67.056 236.289 67.056C204.993 67.056 189.345 56.784 189.345 33.84C189.345 10.896 204.993 0.719999 236.289 0.719999ZM236.289 50.352C256.257 50.352 263.457 47.664 263.457 33.84C263.457 20.016 256.257 17.424 236.289 17.424C216.321 17.424 209.121 20.016 209.121 33.84C209.121 47.664 216.321 50.352 236.289 50.352ZM358.355 67.056C355.859 67.056 353.459 66.48 350.387 63.6L311.027 28.272V66H292.979V12.72C292.979 4.17599 298.163 0.719999 303.827 0.719999C306.227 0.719999 308.627 1.296 311.795 4.17599L351.155 39.504V1.776H369.299V54.96C369.299 63.504 364.115 67.056 358.355 67.056ZM405.593 27.408H440.537C456.185 27.408 464.633 33.264 464.633 44.976C464.633 58.128 456.665 66 437.081 66H377.273L390.041 49.488H438.617C443.321 49.488 445.433 48.144 445.433 44.784C445.433 41.52 443.321 40.176 438.617 40.176H403.673C387.161 40.176 379.577 32.784 379.577 21.744C379.577 9.648 387.641 1.776 407.129 1.776H462.905L450.137 18.48H405.593C400.985 18.48 398.777 19.632 398.777 22.896C398.777 26.16 400.985 27.408 405.593 27.408ZM518.382 0.719999C549.582 0.719999 565.326 10.896 565.326 33.84C565.326 56.784 549.582 67.056 518.382 67.056C487.086 67.056 471.438 56.784 471.438 33.84C471.438 10.896 487.086 0.719999 518.382 0.719999ZM518.382 50.352C538.35 50.352 545.55 47.664 545.55 33.84C545.55 20.016 538.35 17.424 518.382 17.424C498.414 17.424 491.214 20.016 491.214 33.84C491.214 47.664 498.414 50.352 518.382 50.352ZM654.657 53.52L666.465 66H639.873L625.569 49.008H595.041V66H575.169V33.168H631.041C637.185 33.168 641.985 30.384 641.985 25.968C641.985 20.976 637.857 18.48 631.041 18.48H575.169L588.129 1.776H629.409C644.001 1.776 662.433 6.384 662.433 24.72C662.433 34.704 656.193 42.96 645.633 45.072C647.841 46.704 650.241 49.008 654.657 53.52ZM698.187 27.408H733.131C748.779 27.408 757.227 33.264 757.227 44.976C757.227 58.128 749.259 66 729.675 66H669.867L682.635 49.488H731.211C735.915 49.488 738.027 48.144 738.027 44.784C738.027 41.52 735.915 40.176 731.211 40.176H696.267C679.755 40.176 672.171 32.784 672.171 21.744C672.171 9.648 680.234 1.776 699.723 1.776H755.499L742.731 18.48H698.187C693.579 18.48 691.371 19.632 691.371 22.896C691.371 26.16 693.579 27.408 698.187 27.408Z" fill="#008080"/>
</svg>
