<svg width="539" height="91" viewBox="0 0 539 91" fill="none" xmlns="http://www.w3.org/2000/svg">
<path d="M28.48 32.992H58.496L49.984 44H28.48C13.632 44 2.688 34.592 2.688 22.176C2.688 9.632 13.632 1.184 28.48 1.184H58.496L49.984 12.32H28.48C21.312 12.32 15.936 16.608 15.936 22.752C15.936 28.832 21.248 32.992 28.48 32.992ZM115.959 35.68L123.831 44H106.103L96.5665 32.672H76.2145V44H62.9665V22.112H100.215C104.311 22.112 107.511 20.256 107.511 17.312C107.511 13.984 104.759 12.32 100.215 12.32H62.9665L71.6065 1.184H99.1265C108.855 1.184 121.143 4.256 121.143 16.48C121.143 23.136 116.983 28.64 109.943 30.048C111.415 31.136 113.015 32.672 115.959 35.68ZM141.907 32.992H178.323L169.811 44H128.595V1.184H178.195L169.619 12.32H141.907V17.44H175.827L168.211 27.168H141.907V32.992ZM199.229 18.272H222.525C232.957 18.272 238.589 22.176 238.589 29.984C238.589 38.752 233.277 44 220.221 44H180.349L188.861 32.992H221.245C224.381 32.992 225.789 32.096 225.789 29.856C225.789 27.68 224.381 26.784 221.245 26.784H197.949C186.941 26.784 181.885 21.856 181.885 14.496C181.885 6.432 187.26 1.184 200.253 1.184H237.437L228.925 12.32H199.229C196.157 12.32 194.685 13.088 194.685 15.264C194.685 17.44 196.157 18.272 199.229 18.272ZM268.918 32.992H298.934L290.422 44H268.918C254.07 44 243.126 34.592 243.126 22.176C243.126 9.632 254.07 1.184 268.918 1.184H298.934L290.422 12.32H268.918C261.75 12.32 256.374 16.608 256.374 22.752C256.374 28.832 261.686 32.992 268.918 32.992ZM316.844 32.992H353.26L344.748 44H303.532V1.184H353.132L344.556 12.32H316.844V17.44H350.764L343.148 27.168H316.844V32.992ZM401.174 44.704C399.51 44.704 397.91 44.32 395.862 42.4L369.622 18.848V44H357.59V8.48C357.59 2.784 361.046 0.48 364.822 0.48C366.422 0.48 368.022 0.863998 370.134 2.784L396.374 26.336V1.184H408.47V36.64C408.47 42.336 405.014 44.704 401.174 44.704ZM470.746 22.176C470.746 34.592 459.802 44 444.954 44H416.282V17.312H429.594V32.992H444.954C452.314 32.992 457.626 28.896 457.626 22.752C457.626 16.736 452.122 12.32 444.954 12.32H416.282L424.73 1.184H444.954C459.93 1.184 470.746 9.824 470.746 22.176ZM507.422 0.48C528.222 0.48 538.718 7.264 538.718 22.56C538.718 37.856 528.222 44.704 507.422 44.704C486.558 44.704 476.126 37.856 476.126 22.56C476.126 7.264 486.558 0.48 507.422 0.48ZM507.422 33.568C520.734 33.568 525.534 31.776 525.534 22.56C525.534 13.344 520.734 11.616 507.422 11.616C494.11 11.616 489.31 13.344 489.31 22.56C489.31 31.776 494.11 33.568 507.422 33.568Z" fill="#008080"/>
<path d="M1.66 90C1.43333 90 1.18667 89.9267 0.92 89.78C0.653333 89.62 0.52 89.4133 0.52 89.16V87.22C0.52 86.7 0.673333 86.2133 0.98 85.76C1.28667 85.2933 1.68667 84.8533 2.18 84.44C2.67333 84.0267 3.19333 83.6267 3.74 83.24C4.28667 82.8533 4.8 82.46 5.28 82.06C5.77333 81.66 6.17333 81.2533 6.48 80.84C6.8 80.4267 6.96 79.9867 6.96 79.52C6.96 79.24 6.89333 78.9667 6.76 78.7C6.64 78.42 6.44 78.1933 6.16 78.02C5.89333 77.8333 5.54 77.74 5.1 77.74C4.62 77.74 4.2 77.88 3.84 78.16C3.49333 78.4267 3.32 78.8733 3.32 79.5C3.32 79.74 3.2 79.96 2.96 80.16C2.72 80.36 2.38667 80.46 1.96 80.46C1.61333 80.46 1.33333 80.36 1.12 80.16C0.906667 79.96 0.8 79.5933 0.8 79.06C0.8 78.3 1 77.6467 1.4 77.1C1.8 76.54 2.32667 76.1133 2.98 75.82C3.64667 75.5267 4.35333 75.38 5.1 75.38C5.87333 75.38 6.6 75.5467 7.28 75.88C7.96 76.2 8.50667 76.66 8.92 77.26C9.34667 77.86 9.56 78.5867 9.56 79.44C9.56 80.1467 9.40667 80.7867 9.1 81.36C8.79333 81.9333 8.4 82.4533 7.92 82.92C7.44 83.3867 6.92667 83.8133 6.38 84.2C5.84667 84.5733 5.34 84.9267 4.86 85.26C4.38 85.58 3.98667 85.9 3.68 86.22C3.37333 86.54 3.22 86.8733 3.22 87.22V87.72H8.78C9.00667 87.72 9.2 87.8333 9.36 88.06C9.52 88.2733 9.6 88.5333 9.6 88.84C9.6 89.1467 9.52 89.42 9.36 89.66C9.2 89.8867 9.00667 90 8.78 90H1.66ZM19.6777 90.12C18.7977 90.12 18.0043 89.9733 17.2977 89.68C16.591 89.3733 16.031 88.8867 15.6177 88.22C15.2043 87.54 14.9977 86.64 14.9977 85.52V79.98C14.9977 78.86 15.2043 77.9667 15.6177 77.3C16.031 76.62 16.591 76.1333 17.2977 75.84C18.0043 75.5333 18.7977 75.38 19.6777 75.38C20.5577 75.38 21.351 75.5333 22.0577 75.84C22.7777 76.1333 23.3443 76.62 23.7577 77.3C24.171 77.9667 24.3777 78.86 24.3777 79.98V85.52C24.3777 86.64 24.171 87.54 23.7577 88.22C23.3443 88.8867 22.7777 89.3733 22.0577 89.68C21.351 89.9733 20.5577 90.12 19.6777 90.12ZM19.6777 87.84C20.331 87.84 20.8443 87.6533 21.2177 87.28C21.591 86.9067 21.7777 86.32 21.7777 85.52V79.98C21.7777 79.18 21.591 78.5933 21.2177 78.22C20.8443 77.8467 20.331 77.66 19.6777 77.66C19.0243 77.66 18.511 77.8467 18.1377 78.22C17.7777 78.5933 17.5977 79.18 17.5977 79.98V85.52C17.5977 86.32 17.7777 86.9067 18.1377 87.28C18.511 87.6533 19.0243 87.84 19.6777 87.84ZM19.6777 83.7C19.3977 83.7 19.171 83.6133 18.9977 83.44C18.8377 83.2533 18.7577 83.0267 18.7577 82.76C18.7577 82.48 18.8377 82.26 18.9977 82.1C19.171 81.9267 19.3977 81.84 19.6777 81.84C19.971 81.84 20.1977 81.9267 20.3577 82.1C20.531 82.26 20.6177 82.48 20.6177 82.76C20.6177 83.0267 20.531 83.2533 20.3577 83.44C20.1977 83.6133 19.971 83.7 19.6777 83.7ZM30.9295 90C30.7029 90 30.4562 89.9267 30.1895 89.78C29.9229 89.62 29.7895 89.4133 29.7895 89.16V87.22C29.7895 86.7 29.9429 86.2133 30.2495 85.76C30.5562 85.2933 30.9562 84.8533 31.4495 84.44C31.9429 84.0267 32.4629 83.6267 33.0095 83.24C33.5562 82.8533 34.0695 82.46 34.5495 82.06C35.0429 81.66 35.4429 81.2533 35.7495 80.84C36.0695 80.4267 36.2295 79.9867 36.2295 79.52C36.2295 79.24 36.1629 78.9667 36.0295 78.7C35.9095 78.42 35.7095 78.1933 35.4295 78.02C35.1629 77.8333 34.8095 77.74 34.3695 77.74C33.8895 77.74 33.4695 77.88 33.1095 78.16C32.7629 78.4267 32.5895 78.8733 32.5895 79.5C32.5895 79.74 32.4695 79.96 32.2295 80.16C31.9895 80.36 31.6562 80.46 31.2295 80.46C30.8829 80.46 30.6029 80.36 30.3895 80.16C30.1762 79.96 30.0695 79.5933 30.0695 79.06C30.0695 78.3 30.2695 77.6467 30.6695 77.1C31.0695 76.54 31.5962 76.1133 32.2495 75.82C32.9162 75.5267 33.6229 75.38 34.3695 75.38C35.1429 75.38 35.8695 75.5467 36.5495 75.88C37.2295 76.2 37.7762 76.66 38.1895 77.26C38.6162 77.86 38.8295 78.5867 38.8295 79.44C38.8295 80.1467 38.6762 80.7867 38.3695 81.36C38.0629 81.9333 37.6695 82.4533 37.1895 82.92C36.7095 83.3867 36.1962 83.8133 35.6495 84.2C35.1162 84.5733 34.6095 84.9267 34.1295 85.26C33.6495 85.58 33.2562 85.9 32.9495 86.22C32.6429 86.54 32.4895 86.8733 32.4895 87.22V87.72H38.0495C38.2762 87.72 38.4695 87.8333 38.6295 88.06C38.7895 88.2733 38.8695 88.5333 38.8695 88.84C38.8695 89.1467 38.7895 89.42 38.6295 89.66C38.4695 89.8867 38.2762 90 38.0495 90H30.9295ZM49.8975 90C49.5775 90 49.2775 89.9333 48.9975 89.8C48.7308 89.6533 48.5975 89.44 48.5975 89.16V86.82H43.7975C43.5442 86.82 43.3308 86.74 43.1575 86.58C42.9842 86.4067 42.8975 86.18 42.8975 85.9C42.8975 85.82 42.9108 85.7333 42.9375 85.64C42.9642 85.5467 42.9975 85.4533 43.0375 85.36L47.7775 76.06C47.8975 75.8067 48.0575 75.6333 48.2575 75.54C48.4575 75.4333 48.6642 75.38 48.8775 75.38C49.0375 75.38 49.2175 75.42 49.4175 75.5C49.6175 75.58 49.7908 75.7 49.9375 75.86C50.0975 76.0067 50.1775 76.18 50.1775 76.38C50.1775 76.46 50.1442 76.5733 50.0775 76.72L46.2375 84.4H48.5975V82.3C48.5975 82.0067 48.7308 81.8 48.9975 81.68C49.2775 81.5467 49.5775 81.48 49.8975 81.48C50.2175 81.48 50.5108 81.5467 50.7775 81.68C51.0575 81.8 51.1975 82.0067 51.1975 82.3V84.4H52.1175C52.3975 84.4 52.6042 84.5267 52.7375 84.78C52.8842 85.0333 52.9575 85.3067 52.9575 85.6C52.9575 85.9067 52.8708 86.1867 52.6975 86.44C52.5242 86.6933 52.3308 86.82 52.1175 86.82H51.1975V89.16C51.1975 89.44 51.0575 89.6533 50.7775 89.8C50.5108 89.9333 50.2175 90 49.8975 90ZM67.4805 90C67.1605 90 66.8605 89.9333 66.5805 89.8C66.3138 89.6533 66.1805 89.4467 66.1805 89.18V76.22C66.1805 75.94 66.3005 75.7333 66.5405 75.6C66.7805 75.4533 67.0405 75.38 67.3205 75.38H74.3005C74.5938 75.38 74.8005 75.5 74.9205 75.74C75.0538 75.98 75.1205 76.2333 75.1205 76.5C75.1205 76.82 75.0471 77.0933 74.9005 77.32C74.7671 77.5467 74.5671 77.66 74.3005 77.66H68.7805V81.66H71.8405C72.1071 81.66 72.3071 81.7667 72.4405 81.98C72.5871 82.18 72.6605 82.42 72.6605 82.7C72.6605 82.9267 72.5938 83.1533 72.4605 83.38C72.3405 83.5933 72.1338 83.7 71.8405 83.7H68.7805V89.18C68.7805 89.4467 68.6471 89.6533 68.3805 89.8C68.1138 89.9333 67.8138 90 67.4805 90ZM88.3763 90.1C88.2029 90.1 88.0296 90.0467 87.8563 89.94C87.6963 89.8333 87.5696 89.68 87.4763 89.48L84.6363 83.96H82.9563V89.16C82.9563 89.44 82.8229 89.6533 82.5563 89.8C82.2896 89.9333 81.9896 90 81.6562 90C81.3363 90 81.0363 89.9333 80.7563 89.8C80.4896 89.6533 80.3563 89.44 80.3563 89.16V76.2C80.3563 75.9733 80.4296 75.78 80.5763 75.62C80.7363 75.46 80.9429 75.38 81.1963 75.38H85.1563C86.0363 75.38 86.8296 75.5067 87.5363 75.76C88.2563 76.0133 88.8296 76.4467 89.2562 77.06C89.6829 77.66 89.8963 78.4933 89.8963 79.56C89.8963 80.3333 89.7829 80.9933 89.5563 81.54C89.3296 82.0733 89.0163 82.5067 88.6163 82.84C88.2296 83.16 87.7829 83.4 87.2763 83.56L89.9163 88.42C89.9429 88.4733 89.9629 88.5333 89.9763 88.6C89.9896 88.6533 89.9963 88.7 89.9963 88.74C89.9963 88.9533 89.9163 89.1667 89.7563 89.38C89.5963 89.5933 89.3896 89.7667 89.1363 89.9C88.8963 90.0333 88.6429 90.1 88.3763 90.1ZM82.9563 81.92H85.1563C85.8096 81.92 86.3296 81.76 86.7163 81.44C87.1029 81.12 87.2963 80.5733 87.2963 79.8C87.2963 79 87.1029 78.4467 86.7163 78.14C86.3296 77.82 85.8096 77.66 85.1563 77.66H82.9563V81.92ZM100.183 90.12C99.3568 90.12 98.5901 89.9733 97.8834 89.68C97.1768 89.3733 96.6101 88.8867 96.1834 88.22C95.7701 87.54 95.5634 86.64 95.5634 85.52V79.98C95.5634 78.86 95.7701 77.9667 96.1834 77.3C96.6101 76.62 97.1768 76.1333 97.8834 75.84C98.5901 75.5333 99.3634 75.38 100.203 75.38C101.137 75.38 101.957 75.54 102.663 75.86C103.383 76.1667 103.943 76.6 104.343 77.16C104.757 77.72 104.963 78.3933 104.963 79.18C104.963 79.7 104.857 80.0467 104.643 80.22C104.43 80.38 104.103 80.46 103.663 80.46C103.303 80.46 102.997 80.4 102.743 80.28C102.503 80.1467 102.377 79.9333 102.363 79.64C102.363 79.48 102.337 79.2933 102.283 79.08C102.243 78.8533 102.157 78.6333 102.023 78.42C101.89 78.2067 101.683 78.0267 101.403 77.88C101.137 77.7333 100.763 77.66 100.283 77.66C99.6034 77.66 99.0834 77.8533 98.7234 78.24C98.3634 78.6133 98.1834 79.1933 98.1834 79.98V85.52C98.1834 86.32 98.3634 86.9067 98.7234 87.28C99.0968 87.6533 99.6301 87.84 100.323 87.84C100.777 87.84 101.137 87.7667 101.403 87.62C101.67 87.4733 101.863 87.2933 101.983 87.08C102.117 86.8533 102.203 86.62 102.243 86.38C102.297 86.14 102.337 85.9133 102.363 85.7C102.39 85.38 102.523 85.1667 102.763 85.06C103.003 84.94 103.297 84.88 103.643 84.88C104.097 84.88 104.43 84.9667 104.643 85.14C104.857 85.3133 104.963 85.6533 104.963 86.16C104.963 86.96 104.757 87.66 104.343 88.26C103.943 88.86 103.383 89.32 102.663 89.64C101.943 89.96 101.117 90.12 100.183 90.12ZM123.283 90.12C122.403 90.12 121.61 89.9733 120.903 89.68C120.196 89.3733 119.63 88.8867 119.203 88.22C118.79 87.54 118.583 86.64 118.583 85.52V79.98C118.583 78.86 118.79 77.9667 119.203 77.3C119.63 76.62 120.19 76.1333 120.883 75.84C121.59 75.5333 122.363 75.38 123.203 75.38C124.136 75.38 124.956 75.5333 125.663 75.84C126.383 76.1467 126.95 76.5867 127.363 77.16C127.776 77.7333 127.983 78.42 127.983 79.22C127.983 79.7133 127.876 80.0467 127.663 80.22C127.45 80.38 127.123 80.46 126.683 80.46C126.336 80.46 126.036 80.4 125.783 80.28C125.53 80.16 125.396 79.9467 125.383 79.64C125.37 79.32 125.303 79.0133 125.183 78.72C125.076 78.4133 124.876 78.16 124.583 77.96C124.303 77.76 123.87 77.66 123.283 77.66C122.63 77.66 122.116 77.8533 121.743 78.24C121.383 78.6133 121.203 79.1933 121.203 79.98V85.52C121.203 86.3067 121.383 86.8933 121.743 87.28C122.116 87.6533 122.63 87.84 123.283 87.84C123.936 87.84 124.45 87.6533 124.823 87.28C125.196 86.8933 125.383 86.3067 125.383 85.52V84.36H123.763C123.51 84.36 123.31 84.2533 123.163 84.04C123.03 83.8267 122.963 83.5933 122.963 83.34C122.963 83.0867 123.03 82.8533 123.163 82.64C123.31 82.4267 123.51 82.32 123.763 82.32H127.163C127.43 82.32 127.63 82.4067 127.763 82.58C127.91 82.74 127.983 82.94 127.983 83.18V85.52C127.983 86.64 127.776 87.54 127.363 88.22C126.95 88.8867 126.383 89.3733 125.663 89.68C124.956 89.9733 124.163 90.12 123.283 90.12ZM135.872 90.18C135.165 90.18 134.552 89.9667 134.032 89.54C133.525 89.1 133.272 88.4267 133.272 87.52C133.272 86.76 133.465 86.1667 133.852 85.74C134.252 85.3133 134.799 85.0133 135.492 84.84C136.199 84.6667 137.012 84.58 137.932 84.58H138.752V84.32C138.752 84.0267 138.692 83.74 138.572 83.46C138.465 83.18 138.285 82.9467 138.032 82.76C137.792 82.5733 137.445 82.48 136.992 82.48C136.485 82.48 136.092 82.5333 135.812 82.64C135.545 82.7333 135.339 82.8333 135.192 82.94C135.045 83.0467 134.885 83.1 134.712 83.1C134.432 83.1 134.212 82.96 134.052 82.68C133.905 82.4 133.832 82.1133 133.832 81.82C133.832 81.54 133.999 81.2933 134.332 81.08C134.679 80.8533 135.099 80.68 135.592 80.56C136.085 80.44 136.565 80.38 137.032 80.38C138.072 80.38 138.905 80.5667 139.532 80.94C140.159 81.3133 140.612 81.7933 140.892 82.38C141.185 82.9667 141.332 83.6 141.332 84.28V89.16C141.332 89.4 141.212 89.6 140.972 89.76C140.732 89.92 140.432 90 140.072 90C139.739 90 139.459 89.92 139.232 89.76C139.019 89.6 138.912 89.4 138.912 89.16V88.6C138.552 89.0133 138.125 89.38 137.632 89.7C137.152 90.02 136.565 90.18 135.872 90.18ZM136.912 88.26C137.192 88.26 137.472 88.1667 137.752 87.98C138.032 87.7933 138.265 87.5533 138.452 87.26C138.652 86.9667 138.752 86.66 138.752 86.34V85.92H138.452C138.012 85.92 137.592 85.9467 137.192 86C136.792 86.0533 136.465 86.1733 136.212 86.36C135.972 86.5333 135.852 86.8067 135.852 87.18C135.852 87.5533 135.952 87.8267 136.152 88C136.365 88.1733 136.619 88.26 136.912 88.26ZM148.526 90C148.153 90 147.846 89.9133 147.606 89.74C147.366 89.5667 147.246 89.3733 147.246 89.16V81.3C147.246 81.06 147.366 80.8667 147.606 80.72C147.846 80.5733 148.153 80.5 148.526 80.5C148.846 80.5 149.113 80.5733 149.326 80.72C149.553 80.8667 149.666 81.06 149.666 81.3V81.9C149.893 81.5133 150.226 81.1667 150.666 80.86C151.106 80.54 151.659 80.38 152.326 80.38C152.899 80.38 153.406 80.5667 153.846 80.94C154.286 81.3133 154.613 81.7933 154.826 82.38C155.173 81.7 155.613 81.2 156.146 80.88C156.693 80.5467 157.253 80.38 157.826 80.38C158.439 80.38 159.013 80.54 159.546 80.86C160.093 81.1667 160.533 81.6267 160.866 82.24C161.213 82.84 161.386 83.5733 161.386 84.44V89.16C161.386 89.3733 161.259 89.5667 161.006 89.74C160.753 89.9133 160.446 90 160.086 90C159.739 90 159.439 89.9133 159.186 89.74C158.933 89.5667 158.806 89.3733 158.806 89.16V84.44C158.806 84.04 158.726 83.7067 158.566 83.44C158.419 83.1733 158.219 82.9733 157.966 82.84C157.713 82.6933 157.453 82.62 157.186 82.62C156.933 82.62 156.686 82.6933 156.446 82.84C156.206 82.9733 156.006 83.1733 155.846 83.44C155.686 83.7067 155.606 84.0333 155.606 84.42V89.18C155.606 89.4733 155.466 89.6867 155.186 89.82C154.919 89.94 154.626 90 154.306 90C154.013 90 153.726 89.94 153.446 89.82C153.166 89.6867 153.026 89.4733 153.026 89.18V84.44C153.026 84.0667 152.946 83.7467 152.786 83.48C152.639 83.2133 152.439 83.0067 152.186 82.86C151.946 82.7133 151.686 82.64 151.406 82.64C151.139 82.64 150.886 82.7067 150.646 82.84C150.406 82.9733 150.206 83.1733 150.046 83.44C149.899 83.7067 149.826 84.04 149.826 84.44V89.16C149.826 89.3733 149.699 89.5667 149.446 89.74C149.193 89.9133 148.886 90 148.526 90ZM171.781 90.18C170.834 90.18 169.994 90.0133 169.261 89.68C168.541 89.3333 167.974 88.8533 167.561 88.24C167.147 87.6133 166.941 86.8933 166.941 86.08V84.38C166.941 83.66 167.134 83 167.521 82.4C167.921 81.7867 168.447 81.3 169.101 80.94C169.767 80.5667 170.507 80.38 171.321 80.38C172.067 80.38 172.747 80.54 173.361 80.86C173.987 81.18 174.494 81.62 174.881 82.18C175.267 82.74 175.461 83.3933 175.461 84.14C175.461 84.7133 175.367 85.1267 175.181 85.38C174.994 85.62 174.754 85.7733 174.461 85.84C174.181 85.8933 173.887 85.92 173.581 85.92H169.521V86.22C169.521 86.7933 169.734 87.26 170.161 87.62C170.601 87.9667 171.167 88.14 171.861 88.14C172.301 88.14 172.667 88.0733 172.961 87.94C173.254 87.8067 173.507 87.68 173.721 87.56C173.934 87.44 174.134 87.38 174.321 87.38C174.521 87.38 174.694 87.4467 174.841 87.58C174.987 87.7133 175.101 87.8733 175.181 88.06C175.261 88.2333 175.301 88.3867 175.301 88.52C175.301 88.7467 175.154 88.9933 174.861 89.26C174.581 89.5133 174.174 89.7333 173.641 89.92C173.121 90.0933 172.501 90.18 171.781 90.18ZM169.521 84.4H172.441C172.667 84.4 172.821 84.3667 172.901 84.3C172.994 84.22 173.041 84.0733 173.041 83.86C173.041 83.5533 172.954 83.28 172.781 83.04C172.621 82.8 172.407 82.6133 172.141 82.48C171.887 82.3467 171.601 82.28 171.281 82.28C170.974 82.28 170.687 82.3467 170.421 82.48C170.154 82.6 169.934 82.78 169.761 83.02C169.601 83.2467 169.521 83.52 169.521 83.84V84.4Z" fill="#7AB7B7"/>
</svg>
