<svg width="370" height="122" viewBox="0 0 370 122" fill="none" xmlns="http://www.w3.org/2000/svg">
<path d="M33.984 0.48C54.784 0.48 65.28 7.264 65.28 22.56C65.28 37.856 54.784 44.704 33.984 44.704C13.12 44.704 2.688 37.856 2.688 22.56C2.688 7.264 13.12 0.48 33.984 0.48ZM33.984 33.568C47.296 33.568 52.096 31.776 52.096 22.56C52.096 13.344 47.296 11.616 33.984 11.616C20.672 11.616 15.872 13.344 15.872 22.56C15.872 31.776 20.672 33.568 33.984 33.568ZM127.586 1.184V25.312C127.586 38.24 118.69 44.704 100.898 44.704C80.2895 44.704 71.3935 38.24 71.3935 25.312V1.184H84.5775V25.312C84.5775 31.648 87.2655 33.696 100.898 33.696C111.074 33.696 114.274 31.328 114.274 25.312V1.184H127.586ZM187.959 35.68L195.831 44H178.103L168.567 32.672H148.215V44H134.967V22.112H172.215C176.311 22.112 179.511 20.256 179.511 17.312C179.511 13.984 176.759 12.32 172.215 12.32H134.967L143.607 1.184H171.127C180.855 1.184 193.143 4.256 193.143 16.48C193.143 23.136 188.983 28.64 181.943 30.048C183.415 31.136 185.015 32.672 187.959 35.68Z" fill="#7AB7B7"/>
<path d="M26.752 82.024L33.6 94.12C37.376 100.712 39.04 103.912 40.512 106.92C41.92 103.912 43.584 100.776 47.36 94.184L54.208 82.024C55.744 79.272 58.048 77.48 61.504 77.48C64.832 77.48 67.776 79.4 68.928 83.368L79.744 121H66.56L62.528 106.088C61.184 101.224 60.288 97.768 59.584 94.312C58.176 97.32 56.576 100.584 53.632 106.152L47.872 116.904C45.632 121.128 43.456 121.704 40.256 121.704C37.056 121.704 34.88 121.128 32.64 116.904L26.88 106.088C23.744 100.2 22.208 97.192 20.864 94.312C20.224 97.704 19.264 101.288 17.984 106.088L13.952 121H0.96L12.032 83.368C13.184 79.4 16.192 77.48 19.52 77.48C22.912 77.48 25.216 79.208 26.752 82.024ZM98.0345 78.184V121H84.7865V78.184H98.0345ZM122.666 95.272H145.962C156.394 95.272 162.026 99.176 162.026 106.984C162.026 115.752 156.714 121 143.658 121H103.786L112.298 109.992H144.682C147.818 109.992 149.226 109.096 149.226 106.856C149.226 104.68 147.818 103.784 144.682 103.784H121.386C110.378 103.784 105.322 98.856 105.322 91.496C105.322 83.432 110.698 78.184 123.69 78.184H160.874L152.362 89.32H122.666C119.594 89.32 118.122 90.088 118.122 92.264C118.122 94.44 119.594 95.272 122.666 95.272ZM184.291 95.272H207.587C218.019 95.272 223.651 99.176 223.651 106.984C223.651 115.752 218.339 121 205.283 121H165.411L173.923 109.992H206.307C209.443 109.992 210.851 109.096 210.851 106.856C210.851 104.68 209.443 103.784 206.307 103.784H183.011C172.003 103.784 166.947 98.856 166.947 91.496C166.947 83.432 172.323 78.184 185.315 78.184H222.499L213.987 89.32H184.291C181.219 89.32 179.747 90.088 179.747 92.264C179.747 94.44 181.219 95.272 184.291 95.272ZM242.972 78.184V121H229.724V78.184H242.972ZM281.172 77.48C301.972 77.48 312.468 84.264 312.468 99.56C312.468 114.856 301.972 121.704 281.172 121.704C260.308 121.704 249.876 114.856 249.876 99.56C249.876 84.264 260.308 77.48 281.172 77.48ZM281.172 110.568C294.484 110.568 299.284 108.776 299.284 99.56C299.284 90.344 294.484 88.616 281.172 88.616C267.86 88.616 263.06 90.344 263.06 99.56C263.06 108.776 267.86 110.568 281.172 110.568ZM362.549 121.704C360.885 121.704 359.285 121.32 357.237 119.4L330.997 95.848V121H318.965V85.48C318.965 79.784 322.421 77.48 326.197 77.48C327.797 77.48 329.397 77.864 331.509 79.784L357.749 103.336V78.184H369.845V113.64C369.845 119.336 366.389 121.704 362.549 121.704Z" fill="#008080"/>
</svg>
